<?xml version="1.0" encoding="utf-8"?>
<!-- Generator: Adobe Illustrator 23.1.1, SVG Export Plug-In . SVG Version: 6.00 Build 0)  -->
<svg version="1.1" id="Layer_1" xmlns="http://www.w3.org/2000/svg" xmlns:xlink="http://www.w3.org/1999/xlink" x="0px" y="0px"
	 viewBox="0 0 95.1 90.7" style="enable-background:new 0 0 95.1 90.7;" xml:space="preserve">
<style type="text/css">
	.st0{fill:#5D5BF9;stroke:#5D5BF9;stroke-width:0.5;stroke-miterlimit:10;}
</style>
<g>
	<path class="st0" d="M25,42.8h-5.2c-0.5,0-1,0.4-1,1s0.4,1,1,1H25c0.5,0,1-0.4,1-1S25.5,42.8,25,42.8z"/>
	<path class="st0" d="M39,42.8h-5.2c-0.5,0-1,0.4-1,1s0.4,1,1,1H39c0.5,0,1-0.4,1-1S39.5,42.8,39,42.8z"/>
	<path class="st0" d="M47.8,44.7H53c0.5,0,1-0.4,1-1s-0.4-1-1-1h-5.2c-0.5,0-1,0.4-1,1S47.3,44.7,47.8,44.7z"/>
	<path class="st0" d="M25,54h-5.2c-0.5,0-1,0.4-1,1s0.4,1,1,1H25c0.5,0,1-0.4,1-1S25.5,54,25,54z"/>
	<path class="st0" d="M39,54h-5.2c-0.5,0-1,0.4-1,1s0.4,1,1,1H39c0.5,0,1-0.4,1-1S39.5,54,39,54z"/>
	<path class="st0" d="M53,54h-5.2c-0.5,0-1,0.4-1,1s0.4,1,1,1H53c0.5,0,1-0.4,1-1S53.5,54,53,54z"/>
	<path class="st0" d="M25,65.2h-5.2c-0.5,0-1,0.4-1,1s0.4,1,1,1H25c0.5,0,1-0.4,1-1S25.5,65.2,25,65.2z"/>
	<path class="st0" d="M39,65.2h-5.2c-0.5,0-1,0.4-1,1s0.4,1,1,1H39c0.5,0,1-0.4,1-1S39.5,65.2,39,65.2z"/>
	<path class="st0" d="M53,65.2h-5.2c-0.5,0-1,0.4-1,1s0.4,1,1,1H53c0.5,0,1-0.4,1-1S53.5,65.2,53,65.2z"/>
	<path class="st0" d="M25,76.4h-5.2c-0.5,0-1,0.4-1,1s0.4,1,1,1H25c0.5,0,1-0.4,1-1S25.5,76.4,25,76.4z"/>
	<path class="st0" d="M39,76.4h-5.2c-0.5,0-1,0.4-1,1s0.4,1,1,1H39c0.5,0,1-0.4,1-1S39.5,76.4,39,76.4z"/>
	<path class="st0" d="M53,76.4h-5.2c-0.5,0-1,0.4-1,1s0.4,1,1,1H53c0.5,0,1-0.4,1-1S53.5,76.4,53,76.4z"/>
	<path class="st0" d="M43.9,21.3h-3.2v-3.2c0-0.8-0.7-1.5-1.5-1.5h-5.5c-0.8,0-1.5,0.7-1.5,1.5v3.2H29c-0.8,0-1.5,0.7-1.5,1.5v5.5
		c0,0.8,0.7,1.5,1.5,1.5h3.2V33c0,0.8,0.7,1.5,1.5,1.5h5.5c0.8,0,1.5-0.7,1.5-1.5v-3.2h3.2c0.8,0,1.5-0.7,1.5-1.5v-5.5
		C45.4,21.9,44.7,21.3,43.9,21.3z M43.5,27.9h-3.2c-0.8,0-1.5,0.7-1.5,1.5v3.2H34v-3.2c0-0.8-0.7-1.5-1.5-1.5h-3.2v-4.7h3.2
		c0.8,0,1.5-0.7,1.5-1.5v-3.2h4.7v3.2c0,0.8,0.7,1.5,1.5,1.5h3.2L43.5,27.9L43.5,27.9z"/>
	<path class="st0" d="M92.5,85.6h-6.3V28.7h2.1c0.5,0,1-0.4,1-1v-6.8c0-0.5-0.4-1-1-1h-27v-9.6H64c0.5,0,1-0.4,1-1V2.9
		c0-0.5-0.4-1-1-1H8.2c-0.5,0-1,0.4-1,1v6.5c0,0.5,0.4,1,1,1h2.6v75.2H3.1c-0.5,0-1,0.4-1,1s0.4,1,1,1h89.5c0.5,0,1-0.4,1-1
		S93.1,85.6,92.5,85.6z M84.3,85.6H61.4V76h15.2c0.5,0,1-0.4,1-1s-0.4-1-1-1H61.4V63.6h15.2c0.5,0,1-0.4,1-1s-0.4-1-1-1H61.4V51.2
		h15.2c0.5,0,1-0.4,1-1s-0.4-1-1-1H61.4V38.7h15.2c0.5,0,1-0.4,1-1s-0.4-1-1-1H61.4v-8.1h22.9V85.6z M87.4,21.9v4.9h-26v-4.9H87.4z
		 M9.1,3.9H63v4.6H9.1V3.9z M12.7,10.4h46.8v75.2H12.7V10.4z"/>
</g>
</svg>
