<?xml version="1.0" encoding="utf-8"?>
<!-- Generator: Adobe Illustrator 23.1.1, SVG Export Plug-In . SVG Version: 6.00 Build 0)  -->
<svg version="1.1" id="Layer_1" xmlns="http://www.w3.org/2000/svg" xmlns:xlink="http://www.w3.org/1999/xlink" x="0px" y="0px"
	 viewBox="0 0 41.3 41.1" style="enable-background:new 0 0 41.3 41.1;" xml:space="preserve">
<style type="text/css">
	.st0{fill:#5D5BF9;stroke:#5D5BF9;stroke-width:0.5;stroke-miterlimit:10;}
</style>
<g>
	<path class="st0" d="M21,4.6V3c0-0.3-0.2-0.5-0.5-0.5S20,2.7,20,3v1.6c-10,0.3-18,8-18,17.5c0,0.3,0.2,0.5,0.5,0.5l0,0l0,0
		c0.3,0,0.5-0.2,0.5-0.5c0-2,1.8-3.6,4-3.6s4,1.6,4,3.6c0,0.3,0.2,0.5,0.5,0.5s0.5-0.2,0.5-0.5c0-2,1.8-3.6,4-3.6s4,1.6,4,3.6v14
		c0,1.2-0.9,2.2-2,2.2c-1.2,0-2-0.8-2-1.8c0-0.3-0.2-0.5-0.5-0.5S15,36.1,15,36.4c0,1.6,1.3,2.8,3,2.8c1.6,0,3-1.5,3-3.2V22
		c0-2,1.8-3.6,4-3.6s4,1.6,4,3.6c0,0.3,0.2,0.5,0.5,0.5S30,22.3,30,22c0-2,1.8-3.6,4-3.6s4,1.6,4,3.6c0,0.3,0.2,0.5,0.5,0.5l0,0l0,0
		c0.3,0,0.5-0.2,0.5-0.5C39,12.6,31,4.9,21,4.6z M34,17.5c-2,0-3.7,1.1-4.5,2.6c-0.8-1.5-2.5-2.6-4.5-2.6s-3.7,1.1-4.5,2.6
		c-0.8-1.5-2.5-2.6-4.5-2.6s-3.7,1.1-4.5,2.6C10.7,18.6,9,17.5,7,17.5c-1.5,0-2.8,0.6-3.7,1.5C4.9,11.4,12,5.6,20.5,5.6
		S36.2,11.4,37.7,19C36.8,18.1,35.5,17.5,34,17.5z"/>
</g>
</svg>
