<?xml version="1.0" encoding="utf-8"?>
<!-- Generator: Adobe Illustrator 23.1.1, SVG Export Plug-In . SVG Version: 6.00 Build 0)  -->
<svg version="1.1" id="Layer_1" xmlns="http://www.w3.org/2000/svg" xmlns:xlink="http://www.w3.org/1999/xlink" x="0px" y="0px"
	 viewBox="0 0 71.8 65.8" style="enable-background:new 0 0 71.8 65.8;" xml:space="preserve">
<style type="text/css">
	.st0{fill:#5D5BF9;}
</style>
<path class="st0" d="M35.7,63.5c-1.1,0-2.2-0.4-3.1-1.3L7.1,36.8C3.4,33,1.3,27.6,1.3,22c0-11,8.1-20,18-20C26.7,2,33,6.9,35.8,14
	c2.8-7.1,9.1-12,16.5-12c9.9,0,18,9,18,20c0,5.6-2.1,11-5.8,14.7L38.7,62.2C37.9,63.1,36.8,63.5,35.7,63.5z M19.2,5
	c-8.3,0-15,7.6-15,17c0,4.8,1.8,9.4,5,12.6l0.3,0.3l25.2,25.2c0.5,0.5,1.4,0.5,1.9,0l25.5-25.5c3.1-3.2,5-7.8,5-12.6
	c0-9.4-6.7-17-15-17s-15,7.6-15,17c0,0.8-0.7,1.5-1.5,1.5s-1.5-0.7-1.5-1.5C34.2,12.6,27.5,5,19.2,5z"/>
<path class="st0" d="M37.5,46.1c-0.7,0-1.2-0.3-1.4-0.8L31.3,34l-2.2,5c-0.2,0.4-0.8,0.7-1.4,0.7H12.2c-0.8,0-1.5-0.5-1.5-1.1
	s0.7-1.1,1.5-1.1h14.4l3.3-7.5c0.2-0.4,0.8-0.7,1.4-0.7l0,0c0.7,0,1.2,0.3,1.4,0.8l4.6,11l1-2.7c0.2-0.5,0.8-0.8,1.4-0.8h14.6
	c0.8,0,1.5,0.5,1.5,1.1s-0.7,1.1-1.5,1.1H41l-2.1,5.6C38.8,45.7,38.2,46.1,37.5,46.1L37.5,46.1z"/>
<circle class="st0" cx="52.9" cy="38.2" r="2.9"/>
</svg>
