<?xml version="1.0" encoding="utf-8"?>
<!-- Generator: Adobe Illustrator 23.1.1, SVG Export Plug-In . SVG Version: 6.00 Build 0)  -->
<svg version="1.1" id="Layer_1" xmlns="http://www.w3.org/2000/svg" xmlns:xlink="http://www.w3.org/1999/xlink" x="0px" y="0px"
	 viewBox="0 0 75.1 79" style="enable-background:new 0 0 75.1 79;" xml:space="preserve">
<style type="text/css">
	.st0{fill:#5D5BF9;}
</style>
<polygon class="st0" points="55,63.2 51.6,59.8 50.1,61.2 55,66.1 62.5,58.6 61.1,57.2 "/>
<path class="st0" d="M19.5,35.9H18c-0.8,0-1.5,0.7-1.5,1.5s0.7,1.5,1.5,1.5h1.5c0.8,0,1.5-0.7,1.5-1.5
	C21.1,36.6,20.4,35.9,19.5,35.9z"/>
<path class="st0" d="M19.5,48.7H18c-0.8,0-1.5,0.7-1.5,1.5s0.7,1.5,1.5,1.5h1.5c0.8,0,1.5-0.7,1.5-1.5S20.4,48.7,19.5,48.7z"/>
<path class="st0" d="M19.5,61.6H18c-0.8,0-1.5,0.7-1.5,1.5s0.7,1.5,1.5,1.5h1.5c0.8,0,1.5-0.7,1.5-1.5
	C21.1,62.3,20.4,61.6,19.5,61.6z"/>
<path class="st0" d="M37.7,35.9h-1.5c-0.8,0-1.5,0.7-1.5,1.5s0.7,1.5,1.5,1.5h1.5c0.8,0,1.5-0.7,1.5-1.5
	C39.2,36.6,38.5,35.9,37.7,35.9z"/>
<path class="st0" d="M37.7,48.7h-1.5c-0.8,0-1.5,0.7-1.5,1.5s0.7,1.5,1.5,1.5h1.5c0.8,0,1.5-0.7,1.5-1.5S38.5,48.7,37.7,48.7z"/>
<path class="st0" d="M37.7,61.6h-1.5c-0.8,0-1.5,0.7-1.5,1.5s0.7,1.5,1.5,1.5h1.5c0.8,0,1.5-0.7,1.5-1.5S38.5,61.6,37.7,61.6z"/>
<path class="st0" d="M54.4,38.9h1.5c0.8,0,1.5-0.7,1.5-1.5s-0.7-1.5-1.5-1.5h-1.5c-0.8,0-1.5,0.7-1.5,1.5
	C52.8,38.2,53.5,38.9,54.4,38.9z"/>
<path class="st0" d="M54.4,51.8h1.5c0.8,0,1.5-0.7,1.5-1.5s-0.7-1.5-1.5-1.5h-1.5c-0.8,0-1.5,0.7-1.5,1.5
	C52.8,51.1,53.5,51.8,54.4,51.8z"/>
<path class="st0" d="M65.1,7.1V4.2c0-1.5-1.2-2.6-2.6-2.6h-2.2c-1.5,0-2.6,1.2-2.6,2.6V7h-17V4.2c0-1.5-1.2-2.6-2.6-2.6h-2.2
	c-1.5,0-2.6,1.2-2.6,2.6V7h-17V4.2c0-1.5-1.2-2.6-2.6-2.6h-2.2c-1.5,0-2.6,1.2-2.6,2.6v2.9c-3.7,0.6-6.4,3.7-6.4,7.5v54.1
	c0,4.2,3.4,7.7,7.7,7.7h54.1c4.2,0,7.7-3.4,7.7-7.7v-54C71.9,10.8,68.9,7.6,65.1,7.1z M59.6,4.2c0-0.4,0.3-0.6,0.6-0.6h2.2
	c0.3,0,0.6,0.3,0.6,0.6v7.6c0,0.4-0.3,0.6-0.6,0.6h-2.2c-0.3,0-0.6-0.3-0.6-0.6V4.2z M35.2,4.2c0-0.4,0.3-0.6,0.6-0.6H38
	c0.3,0,0.6,0.3,0.6,0.6v7.6c0,0.4-0.3,0.6-0.6,0.6h-2.2c-0.3,0-0.6-0.3-0.6-0.6V4.2z M10.8,4.2c0-0.4,0.3-0.6,0.6-0.6h2.2
	c0.4,0,0.6,0.3,0.6,0.6v7.6c0,0.4-0.3,0.6-0.6,0.6h-2.2c-0.4,0-0.6-0.3-0.6-0.6V4.2z M8.8,9.2v2.7c0,1.5,1.2,2.6,2.6,2.6h2.2
	c1.5,0,2.6-1.2,2.6-2.6V9.1h17v2.8c0,1.5,1.2,2.6,2.6,2.6H38c1.5,0,2.6-1.2,2.6-2.6V9.1h17v2.8c0,1.5,1.2,2.6,2.6,2.6h2.2
	c1.5,0,2.6-1.2,2.6-2.6V9.1c2.7,0.4,4.8,2.8,4.8,5.6v9.7H4.4v-9.7C4.4,12,6.3,9.8,8.8,9.2z M64.2,74.5H10.1c-3.1,0-5.7-2.5-5.7-5.7
	V26.4h65.4v42.4C69.9,72,67.3,74.5,64.2,74.5z"/>
</svg>
